<?xml version="1.0" encoding="utf-8"?>
<!-- Generator: Adobe Illustrator 17.0.0, SVG Export Plug-In . SVG Version: 6.00 Build 0)  -->
<!DOCTYPE svg PUBLIC "-//W3C//DTD SVG 1.1//EN" "http://www.w3.org/Graphics/SVG/1.1/DTD/svg11.dtd">
<svg version="1.1" id="Layer_1" xmlns="http://www.w3.org/2000/svg" xmlns:xlink="http://www.w3.org/1999/xlink" x="0px" y="0px"
	 width="115.719px" height="115.746px" viewBox="0 0 115.719 115.746" enable-background="new 0 0 115.719 115.746"
	 xml:space="preserve">
<path fill="none" d="M36.152,96.681"/>
<path fill="none" d="M36.152,96.681"/>
<g>
	<g>
		<g>
			<path fill="none" d="M79.703,96.442c-0.018,0.018-0.04,0.039-0.061,0.059C79.649,96.497,79.668,96.479,79.703,96.442z"/>
		</g>
		<g>
			<path fill="#A16235" d="M53.984,81.128c1.006,0.31,4.955-0.465,9.91,5.806c4.955,6.271,4.761,6.077,6.31,8.555
				c1.548,2.477,2.09,4.258,3.406,4.49c1.316,0.232,2.942-0.929,3.561-1.394c0.597-0.447,1.93-1.559,2.472-2.085
				c-0.08,0.051,1.64-1.955,1.848-2.235c0.096-0.129,0.224-0.301,0.362-0.506c0.526-0.777,1.216-2.013,1.032-3.056
				c-0.232-1.316-2.013-1.858-4.49-3.406c-2.477-1.548-2.284-1.355-8.555-6.31c-6.271-4.955-5.497-8.903-5.806-9.91
				c-0.31-1.006,0.735-5.535,2.09-7.742L46.242,83.218C48.448,81.864,52.977,80.818,53.984,81.128z"/>
		</g>
		<g>
			<path fill="#B53C41" d="M53.697,35.273c-8.09-5.535-15.91-6.31-18.039-6.271c-2.129,0.039-5.884,1.006-7.781,1.51
				c-1.897,0.503-7.031,3.857-8.818,5.644c-1.786,1.786-5.14,6.921-5.644,8.818c-0.503,1.897-1.471,5.652-1.51,7.781
				c-0.039,2.129,0.735,9.948,6.271,18.039S33.932,82.986,35.171,83.76c1.239,0.774,8.864,0.813,11.071-0.542l19.881-19.881
				c1.355-2.206,1.316-9.832,0.542-11.071C65.89,51.028,61.787,40.809,53.697,35.273z"/>
		</g>
	</g>
	<g>
		<g>
			<path fill="none" d="M36.192,97.073c-0.018-0.018-0.039-0.04-0.059-0.061C36.137,97.019,36.155,97.038,36.192,97.073z"/>
		</g>
		<g>
			<path fill="#BF7B3F" d="M51.506,71.354c-0.31,1.006,0.465,4.955-5.806,9.91c-6.271,4.955-6.077,4.761-8.555,6.31
				c-2.477,1.548-4.258,2.09-4.49,3.406c-0.232,1.316,0.929,2.942,1.394,3.561c0.447,0.597,1.559,1.93,2.085,2.472
				c-0.051-0.08,1.955,1.64,2.235,1.848c0.129,0.096,0.301,0.224,0.506,0.362c0.777,0.526,2.013,1.216,3.056,1.032
				c1.316-0.232,1.858-2.013,3.406-4.49c1.548-2.477,1.355-2.284,6.31-8.555c4.955-6.271,8.903-5.497,9.91-5.806
				c1.006-0.31,5.535,0.735,7.742,2.09L49.416,63.612C50.771,65.819,51.816,70.348,51.506,71.354z"/>
		</g>
		<g>
			<path fill="#0B1813" d="M97.361,71.067c5.535-8.09,6.31-15.91,6.271-18.039c-0.039-2.129-1.006-5.884-1.51-7.781
				c-0.503-1.897-3.857-7.031-5.644-8.818c-1.786-1.786-6.921-5.14-8.818-5.644c-1.897-0.503-5.652-1.471-7.781-1.51
				c-2.129-0.039-9.948,0.735-18.039,6.271S49.363,49.826,48.874,52.541c-0.743,4.119-0.813,8.864,0.542,11.071l19.881,19.881
				c2.206,1.355,9.832,1.316,11.071,0.542C81.606,83.261,91.825,79.157,97.361,71.067z"/>
		</g>
	</g>
</g>
<path fill="#F9F4F9" d="M109.02,57.86c-0.266,31.511-29.17,55.899-60.346,50.33c-14.645-2.616-27.376-11.809-34.958-24.517
	C5.867,70.519,4.813,54.326,9.92,40.014C18.167,16.903,43.201,3.265,67.079,7.53C91.257,11.849,108.814,33.519,109.02,57.86
	c0.036,4.318,6.735,4.321,6.699,0C115.457,26.834,90.715,1.357,59.75,0.049C28.71-1.261,2.479,23.644,0.16,54.129
	c-2.361,31.032,21.783,57.95,52.145,61.292c30.61,3.369,59.069-19.895,62.916-50.167c0.313-2.46,0.477-4.915,0.497-7.394
	C115.755,53.539,109.056,53.542,109.02,57.86z"/>
<g>
	<path fill="#F9F4F9" d="M56.517,99.639c-0.526,0.42-1.192,0.673-1.916,0.673c-1.695,0-3.074-1.379-3.074-3.074
		c0-1.695,1.379-3.074,3.074-3.074c0.724,0,1.39,0.252,1.916,0.673c0.327-0.658,0.785-1.24,1.339-1.713
		c-0.895-0.71-2.026-1.134-3.254-1.134c-2.894,0-5.248,2.354-5.248,5.248s2.354,5.248,5.248,5.248c1.228,0,2.359-0.424,3.255-1.134
		C57.302,100.879,56.845,100.297,56.517,99.639z"/>
	<path fill="#F9F4F9" d="M63.331,99.8l-0.122-0.091c-0.511,0.379-1.143,0.603-1.826,0.603c-0.79,0-1.511-0.3-2.056-0.791
		c-0.625-0.563-1.018-1.378-1.018-2.283c0-0.905,0.393-1.72,1.018-2.283c0.545-0.491,1.266-0.791,2.056-0.791
		c0.757,0,1.45,0.276,1.987,0.731l0.106-0.101l1.469-1.407c-0.936-0.866-2.188-1.397-3.561-1.397c-1.291,0-2.475,0.469-3.391,1.246
		c-0.556,0.472-1.013,1.057-1.334,1.719c-0.335,0.691-0.523,1.465-0.523,2.283s0.188,1.592,0.523,2.283
		c0.321,0.663,0.778,1.248,1.334,1.719c0.915,0.777,2.099,1.246,3.391,1.246c1.398,0,2.669-0.549,3.611-1.443L63.331,99.8z"/>
</g>
<circle fill="#94B4DB" cx="53.332" cy="23.005" r="4.34"/>
<circle fill="#EE8331" cx="62.013" cy="23.005" r="4.34"/>
<circle fill="#F9F4F9" cx="57.672" cy="18.665" r="4.34"/>
</svg>
